<svg xmlns="http://www.w3.org/2000/svg" viewBox="0 0 128 128">
  <path fill="#00618A" d="M2.001 90.458h4.108V74.235l6.36 13.964c.721 1.597 1.717 2.179 3.515 2.179 1.798 0 2.794-.582 3.515-2.179l6.36-13.964v16.223h4.108V72.296c0-1.597-.642-2.339-1.958-2.739-3.075-.959-5.193.06-6.155 2.099L15.494 83.62l-6.36-11.964c-.962-2.039-3.075-3.058-6.155-2.099-1.316.4-1.958 1.142-1.958 2.739v18.162h-.02zM34.705 90.458h4.108V80.87l8.506 9.588h5.59l-9.148-10.07 8.586-10.07h-5.39l-8.144 9.588V69.877h-4.108v20.581zM60.907 86.63c0 2.659 2.074 4.248 6.802 4.248 4.728 0 6.802-1.589 6.802-4.248V69.877h-4.108v16.463c0 1.109-.562 1.749-2.694 1.749-2.132 0-2.694-.64-2.694-1.749V69.877h-4.108V86.63z"/>
  <path fill="#E48E00" d="M78.328 90.458h12.003c2.874 0 4.108-1.589 4.108-4.248v-3.368c0-2.659-1.234-4.248-4.108-4.248h-7.895v-4.488h8.937v-4.229H82.436c-2.874 0-4.108 1.589-4.108 4.248v3.128c0 2.659 1.234 4.248 4.108 4.248h7.895v4.728h-9.897l1.992 4.229zm17.891-16.463h5.59l3.795 11.484 3.795-11.484h5.59l-6.802 20.581h-5.166l-6.802-20.581zm22.372 16.463h12.003c2.874 0 4.108-1.589 4.108-4.248v-8.096c0-2.659-1.234-4.248-4.108-4.248h-7.895V69.877h-4.108v20.581zm4.108-12.363h7.895v8.336h-7.895v-8.336z"/>
</svg>
